<?xml version="1.0" encoding="utf-8"?>
<!-- Uploaded to: SVG Repo, www.svgrepo.com, Generator: SVG Repo Mixer Tools -->
<svg width="800px" height="800px" viewBox="0 0 1024 1024" class="icon"  version="1.1" xmlns="http://www.w3.org/2000/svg"><path d="M405.333333 213.333333h213.333334v85.333334H405.333333zM746.666667 853.333333a21.333333 21.333333 0 0 1-21.333334 21.333334H298.666667a21.333333 21.333333 0 0 1-21.333334-21.333334V512a21.333333 21.333333 0 0 1 21.333334-21.333333h426.666666a21.333333 21.333333 0 0 1 21.333334 21.333333v341.333333z" fill="#FFB74D" /><path d="M661.333333 810.666667a21.333333 21.333333 0 0 1-21.333333 21.333333H384a21.333333 21.333333 0 0 1-21.333333-21.333333V554.666667a21.333333 21.333333 0 0 1 21.333333-21.333334h256a21.333333 21.333333 0 0 1 21.333333 21.333334v256zM320 405.333333h384v85.333334H320zM320 874.666667h384v106.666666H320z" fill="#E89419" /><path d="M512 682.666667m-106.666667 0a106.666667 106.666667 0 1 0 213.333334 0 106.666667 106.666667 0 1 0-213.333334 0Z" fill="#FFF8E1" /><path d="M704 405.333333l-85.333333-106.666666H405.333333l-85.333333 106.666666zM405.333333 213.333333l106.666667-192 106.666667 192z" fill="#7986CB" /><path d="M490.666667 618.666667h42.666666v85.333333h-42.666666z" fill="#455A64" /><path d="M490.666667 661.333333h85.333333v42.666667h-85.333333z" fill="#455A64" /><path d="M405.333333 490.666667v-42.666667a21.333333 21.333333 0 1 0-42.666666 0v42.666667h42.666666zM490.666667 490.666667v-42.666667a21.333333 21.333333 0 1 0-42.666667 0v42.666667h42.666667zM576 490.666667v-42.666667a21.333333 21.333333 0 1 0-42.666667 0v42.666667h42.666667zM661.333333 490.666667v-42.666667a21.333333 21.333333 0 1 0-42.666666 0v42.666667h42.666666zM490.666667 298.666667v-42.666667a21.333333 21.333333 0 1 0-42.666667 0v42.666667h42.666667zM576 298.666667v-42.666667a21.333333 21.333333 0 1 0-42.666667 0v42.666667h42.666667zM405.333333 981.333333v-64a21.333333 21.333333 0 1 0-42.666666 0v64h42.666666zM490.666667 981.333333v-64a21.333333 21.333333 0 1 0-42.666667 0v64h42.666667zM576 981.333333v-64a21.333333 21.333333 0 1 0-42.666667 0v64h42.666667zM661.333333 981.333333v-64a21.333333 21.333333 0 1 0-42.666666 0v64h42.666666z" fill="#805A26" /></svg>